<mxfile host="app.diagrams.net" modified="2023-12-22T08:35:32.915Z" agent="Mozilla/5.0 (Macintosh; Intel Mac OS X 10_15_7) AppleWebKit/537.36 (KHTML, like Gecko) Chrome/120.0.0.0 Safari/537.36" version="22.1.11" etag="Ke_cLG9mQDk-VuC0zBQu" type="github">
  <diagram name="Page-1" id="Q0bQeKVj6JJIiYbMwAau">
    <mxGraphModel>
      <root>
        <mxCell id="0" />
        <mxCell id="1" parent="0" />
      </root>
    </mxGraphModel>
  </diagram>
</mxfile>
